<mxfile host="app.diagrams.net" modified="2023-09-21T18:32:14.903Z" agent="Mozilla/5.0 (Macintosh; Intel Mac OS X 10_15_7) AppleWebKit/537.36 (KHTML, like Gecko) Chrome/116.0.0.0 Safari/537.36" version="21.8.0" etag="iimf2GXIAW6Z2YGE6d6L" type="github">
  <diagram name="Page-1" id="ORCyJK9YrpJ0bYZMw98I">
    <mxGraphModel>
      <root>
        <mxCell id="0" />
        <mxCell id="1" parent="0" />
      </root>
    </mxGraphModel>
  </diagram>
</mxfile>
